{
	"asset":{
		"generator":"Khronos glTF Blender I/O v3.5.30",
		"version":"2.0"
	},
	"scene":0,
	"scenes":[
		{
			"name":"Scene",
			"nodes":[
				0
			]
		}
	],
	"nodes":[
		{
			"mesh":0,
			"name":"Cube",
			"scale":[
				0.24000000953674316,
				0.2800000309944153,
				0.4399999976158142
			]
		}
	],
	"materials":[
		{
			"doubleSided":true,
			"name":"Material",
			"pbrMetallicRoughness":{
				"baseColorFactor":[
					0.800000011920929,
					0.800000011920929,
					0.800000011920929,
					1
				],
				"metallicFactor":0,
				"roughnessFactor":0.5
			}
		}
	],
	"meshes":[
		{
			"name":"Cube",
			"primitives":[
				{
					"attributes":{
						"POSITION":0,
						"TEXCOORD_0":1,
						"NORMAL":2
					},
					"indices":3,
					"material":0
				}
			]
		}
	],
	"accessors":[
		{
			"bufferView":0,
			"componentType":5126,
			"count":1990,
			"max":[
				5.6966142654418945,
				3.515624523162842,
				1
			],
			"min":[
				-5.6966142654418945,
				-3.515624523162842,
				-8.139914512634277
			],
			"type":"VEC3"
		},
		{
			"bufferView":1,
			"componentType":5126,
			"count":1990,
			"type":"VEC2"
		},
		{
			"bufferView":2,
			"componentType":5126,
			"count":1990,
			"type":"VEC3"
		},
		{
			"bufferView":3,
			"componentType":5123,
			"count":2940,
			"type":"SCALAR"
		}
	],
	"bufferViews":[
		{
			"buffer":0,
			"byteLength":23880,
			"byteOffset":0,
			"target":34962
		},
		{
			"buffer":0,
			"byteLength":15920,
			"byteOffset":23880,
			"target":34962
		},
		{
			"buffer":0,
			"byteLength":23880,
			"byteOffset":39800,
			"target":34962
		},
		{
			"buffer":0,
			"byteLength":5880,
			"byteOffset":63680,
			"target":34963
		}
	],
	"buffers":[
		{
			"byteLength":69560,
			"uri":"monkeycube.bin"
		}
	]
}
