{
	"asset":{
		"generator":"Khronos glTF Blender I/O v3.5.30",
		"version":"2.0"
	},
	"scene":0,
	"scenes":[
		{
			"name":"Scene",
			"nodes":[
				0,
				1,
				2
			]
		}
	],
	"nodes":[
		{
			"mesh":0,
			"name":"Suzanne",
			"translation":[
				0,
				0,
				0.12999999523162842
			]
		},
		{
			"mesh":1,
			"name":"Torus"
		},
		{
			"mesh":2,
			"name":"Cone",
			"translation":[
				0,
				1.7799999713897705,
				0
			]
		}
	],
	"meshes":[
		{
			"name":"Suzanne",
			"primitives":[
				{
					"attributes":{
						"POSITION":0,
						"TEXCOORD_0":1,
						"NORMAL":2
					},
					"indices":3
				}
			]
		},
		{
			"name":"Torus",
			"primitives":[
				{
					"attributes":{
						"POSITION":4,
						"TEXCOORD_0":5,
						"NORMAL":6
					},
					"indices":7
				}
			]
		},
		{
			"name":"Cone",
			"primitives":[
				{
					"attributes":{
						"POSITION":8,
						"TEXCOORD_0":9,
						"NORMAL":10
					},
					"indices":11
				}
			]
		}
	],
	"accessors":[
		{
			"bufferView":0,
			"componentType":5126,
			"count":1966,
			"max":[
				1.3671875,
				0.984375,
				0.8515625
			],
			"min":[
				-1.3671875,
				-0.984375,
				-0.8515625
			],
			"type":"VEC3"
		},
		{
			"bufferView":1,
			"componentType":5126,
			"count":1966,
			"type":"VEC2"
		},
		{
			"bufferView":2,
			"componentType":5126,
			"count":1966,
			"type":"VEC3"
		},
		{
			"bufferView":3,
			"componentType":5123,
			"count":2904,
			"type":"SCALAR"
		},
		{
			"bufferView":4,
			"componentType":5126,
			"count":2304,
			"max":[
				1.25,
				0.25,
				1.25
			],
			"min":[
				-1.25,
				-0.25,
				-1.25
			],
			"type":"VEC3"
		},
		{
			"bufferView":5,
			"componentType":5126,
			"count":2304,
			"type":"VEC2"
		},
		{
			"bufferView":6,
			"componentType":5126,
			"count":2304,
			"type":"VEC3"
		},
		{
			"bufferView":7,
			"componentType":5123,
			"count":3456,
			"type":"SCALAR"
		},
		{
			"bufferView":8,
			"componentType":5126,
			"count":128,
			"max":[
				1,
				1,
				1
			],
			"min":[
				-1,
				-1,
				-1
			],
			"type":"VEC3"
		},
		{
			"bufferView":9,
			"componentType":5126,
			"count":128,
			"type":"VEC2"
		},
		{
			"bufferView":10,
			"componentType":5126,
			"count":128,
			"type":"VEC3"
		},
		{
			"bufferView":11,
			"componentType":5123,
			"count":186,
			"type":"SCALAR"
		}
	],
	"bufferViews":[
		{
			"buffer":0,
			"byteLength":23592,
			"byteOffset":0,
			"target":34962
		},
		{
			"buffer":0,
			"byteLength":15728,
			"byteOffset":23592,
			"target":34962
		},
		{
			"buffer":0,
			"byteLength":23592,
			"byteOffset":39320,
			"target":34962
		},
		{
			"buffer":0,
			"byteLength":5808,
			"byteOffset":62912,
			"target":34963
		},
		{
			"buffer":0,
			"byteLength":27648,
			"byteOffset":68720,
			"target":34962
		},
		{
			"buffer":0,
			"byteLength":18432,
			"byteOffset":96368,
			"target":34962
		},
		{
			"buffer":0,
			"byteLength":27648,
			"byteOffset":114800,
			"target":34962
		},
		{
			"buffer":0,
			"byteLength":6912,
			"byteOffset":142448,
			"target":34963
		},
		{
			"buffer":0,
			"byteLength":1536,
			"byteOffset":149360,
			"target":34962
		},
		{
			"buffer":0,
			"byteLength":1024,
			"byteOffset":150896,
			"target":34962
		},
		{
			"buffer":0,
			"byteLength":1536,
			"byteOffset":151920,
			"target":34962
		},
		{
			"buffer":0,
			"byteLength":372,
			"byteOffset":153456,
			"target":34963
		}
	],
	"buffers":[
		{
			"byteLength":153828,
			"uri":"test.bin"
		}
	]
}
