{
	"asset":{
		"generator":"Khronos glTF Blender I/O v3.5.30",
		"version":"2.0"
	},
	"scene":0,
	"scenes":[
		{
			"name":"Scene",
			"nodes":[
				9
			]
		}
	],
	"nodes":[
		{
			"mesh":0,
			"name":"Cube_005_Material_0",
			"scale":[
				5.000000476837158,
				5.000000476837158,
				5.000000476837158
			]
		},
		{
			"mesh":1,
			"name":"Cube_005_Material_001_0",
			"scale":[
				5.000000476837158,
				5.000000476837158,
				5.000000476837158
			]
		},
		{
			"mesh":2,
			"name":"Cube_005_Material_002_0",
			"scale":[
				5.000000476837158,
				5.000000476837158,
				5.000000476837158
			]
		},
		{
			"mesh":3,
			"name":"Cube_005_Material_003_0",
			"scale":[
				5.000000476837158,
				5.000000476837158,
				5.000000476837158
			]
		},
		{
			"mesh":4,
			"name":"Cube_005_Material_004_0",
			"scale":[
				5.000000476837158,
				5.000000476837158,
				5.000000476837158
			]
		},
		{
			"mesh":5,
			"name":"Cube_005_UV1_003_0",
			"scale":[
				5.000000476837158,
				5.000000476837158,
				5.000000476837158
			]
		},
		{
			"children":[
				0,
				1,
				2,
				3,
				4,
				5
			],
			"name":"Cube_005"
		},
		{
			"children":[
				6
			],
			"name":"RootNode"
		},
		{
			"children":[
				7
			],
			"name":"Shinchan Models.fbx",
			"scale":[
				0.05000000074505806,
				0.05000000074505806,
				0.05000000074505806
			]
		},
		{
			"children":[
				8
			],
			"name":"Sketchfab_model",
			"scale":[
				20,
				20,
				20
			]
		}
	],
	"materials":[
		{
			"doubleSided":true,
			"name":"Material.001",
			"pbrMetallicRoughness":{
				"baseColorFactor":[
					0.8550000190734863,
					0.0017999999690800905,
					0.01940000057220459,
					1
				],
				"metallicFactor":0,
				"roughnessFactor":0.6000000238418579
			}
		},
		{
			"doubleSided":true,
			"name":"Material_001",
			"pbrMetallicRoughness":{
				"baseColorFactor":[
					0.8537999987602234,
					0.7307999730110168,
					0.05380000174045563,
					1
				],
				"metallicFactor":0,
				"roughnessFactor":0.6000000238418579
			}
		},
		{
			"doubleSided":true,
			"name":"Material_002",
			"pbrMetallicRoughness":{
				"metallicFactor":0,
				"roughnessFactor":0.6000000238418579
			}
		},
		{
			"doubleSided":true,
			"name":"Material_003",
			"pbrMetallicRoughness":{
				"baseColorFactor":[
					0,
					0,
					0,
					1
				],
				"metallicFactor":0,
				"roughnessFactor":0.6000000238418579
			}
		},
		{
			"doubleSided":true,
			"name":"Material_004",
			"pbrMetallicRoughness":{
				"baseColorFactor":[
					0.698199987411499,
					0.28760001063346863,
					0.19689999520778656,
					1
				],
				"metallicFactor":0,
				"roughnessFactor":0.6000000238418579
			}
		},
		{
			"doubleSided":true,
			"name":"UV1_003",
			"pbrMetallicRoughness":{
				"baseColorFactor":[
					0.9473000168800354,
					0.5710999965667725,
					0.2874000072479248,
					1
				],
				"metallicFactor":0,
				"roughnessFactor":0.6000000238418579
			}
		}
	],
	"meshes":[
		{
			"name":"Cube_005_Material_0",
			"primitives":[
				{
					"attributes":{
						"POSITION":0,
						"TEXCOORD_0":1,
						"NORMAL":2
					},
					"indices":3,
					"material":0
				}
			]
		},
		{
			"name":"Cube_005_Material_001_0",
			"primitives":[
				{
					"attributes":{
						"POSITION":4,
						"TEXCOORD_0":5,
						"NORMAL":6
					},
					"indices":7,
					"material":1
				}
			]
		},
		{
			"name":"Cube_005_Material_002_0",
			"primitives":[
				{
					"attributes":{
						"POSITION":8,
						"TEXCOORD_0":9,
						"NORMAL":10
					},
					"indices":11,
					"material":2
				}
			]
		},
		{
			"name":"Cube_005_Material_003_0",
			"primitives":[
				{
					"attributes":{
						"POSITION":12,
						"TEXCOORD_0":13,
						"NORMAL":14
					},
					"indices":15,
					"material":3
				}
			]
		},
		{
			"name":"Cube_005_Material_004_0",
			"primitives":[
				{
					"attributes":{
						"POSITION":16,
						"TEXCOORD_0":17,
						"NORMAL":18
					},
					"indices":19,
					"material":4
				}
			]
		},
		{
			"name":"Cube_005_UV1_003_0",
			"primitives":[
				{
					"attributes":{
						"POSITION":20,
						"TEXCOORD_0":21,
						"NORMAL":22
					},
					"indices":23,
					"material":5
				}
			]
		}
	],
	"accessors":[
		{
			"bufferView":0,
			"componentType":5126,
			"count":652,
			"max":[
				0.3583313822746277,
				0.6421781778335571,
				0.1585344523191452
			],
			"min":[
				-0.3583313822746277,
				0.3194633424282074,
				-0.1367252916097641
			],
			"type":"VEC3"
		},
		{
			"bufferView":1,
			"componentType":5126,
			"count":652,
			"type":"VEC2"
		},
		{
			"bufferView":2,
			"componentType":5126,
			"count":652,
			"type":"VEC3"
		},
		{
			"bufferView":3,
			"componentType":5123,
			"count":3816,
			"type":"SCALAR"
		},
		{
			"bufferView":4,
			"componentType":5126,
			"count":596,
			"max":[
				0.1638335883617401,
				0.33284977078437805,
				0.14436808228492737
			],
			"min":[
				-0.1638335883617401,
				-0.00017959895194508135,
				-0.12762688100337982
			],
			"type":"VEC3"
		},
		{
			"bufferView":5,
			"componentType":5126,
			"count":596,
			"type":"VEC2"
		},
		{
			"bufferView":6,
			"componentType":5126,
			"count":596,
			"type":"VEC3"
		},
		{
			"bufferView":7,
			"componentType":5123,
			"count":3120,
			"type":"SCALAR"
		},
		{
			"bufferView":8,
			"componentType":5126,
			"count":192,
			"max":[
				0.1095883920788765,
				0.8067467212677002,
				0.23833511769771576
			],
			"min":[
				-0.1095883920788765,
				0.027261601760983467,
				-0.02993062324821949
			],
			"type":"VEC3"
		},
		{
			"bufferView":9,
			"componentType":5126,
			"count":192,
			"type":"VEC2"
		},
		{
			"bufferView":10,
			"componentType":5126,
			"count":192,
			"type":"VEC3"
		},
		{
			"bufferView":11,
			"componentType":5123,
			"count":864,
			"type":"SCALAR"
		},
		{
			"bufferView":12,
			"componentType":5126,
			"count":1142,
			"max":[
				0.22006019949913025,
				0.9981404542922974,
				0.2480585128068924
			],
			"min":[
				-0.22006019949913025,
				0.6354886889457703,
				-0.1864694058895111
			],
			"type":"VEC3"
		},
		{
			"bufferView":13,
			"componentType":5126,
			"count":1142,
			"type":"VEC2"
		},
		{
			"bufferView":14,
			"componentType":5126,
			"count":1142,
			"type":"VEC3"
		},
		{
			"bufferView":15,
			"componentType":5123,
			"count":5748,
			"type":"SCALAR"
		},
		{
			"bufferView":16,
			"componentType":5126,
			"count":56,
			"max":[
				0.03486679866909981,
				0.6798359751701355,
				0.2907383441925049
			],
			"min":[
				-0.03486679866909981,
				0.6285220384597778,
				0.2400711625814438
			],
			"type":"VEC3"
		},
		{
			"bufferView":17,
			"componentType":5126,
			"count":56,
			"type":"VEC2"
		},
		{
			"bufferView":18,
			"componentType":5126,
			"count":56,
			"type":"VEC3"
		},
		{
			"bufferView":19,
			"componentType":5123,
			"count":240,
			"type":"SCALAR"
		},
		{
			"bufferView":20,
			"componentType":5126,
			"count":906,
			"max":[
				0.4263237714767456,
				0.9347096085548401,
				0.29510435461997986
			],
			"min":[
				-0.4263237714767456,
				0.08573819696903229,
				-0.08348998427391052
			],
			"type":"VEC3"
		},
		{
			"bufferView":21,
			"componentType":5126,
			"count":906,
			"type":"VEC2"
		},
		{
			"bufferView":22,
			"componentType":5126,
			"count":906,
			"type":"VEC3"
		},
		{
			"bufferView":23,
			"componentType":5123,
			"count":4752,
			"type":"SCALAR"
		}
	],
	"bufferViews":[
		{
			"buffer":0,
			"byteLength":7824,
			"byteOffset":0,
			"target":34962
		},
		{
			"buffer":0,
			"byteLength":5216,
			"byteOffset":7824,
			"target":34962
		},
		{
			"buffer":0,
			"byteLength":7824,
			"byteOffset":13040,
			"target":34962
		},
		{
			"buffer":0,
			"byteLength":7632,
			"byteOffset":20864,
			"target":34963
		},
		{
			"buffer":0,
			"byteLength":7152,
			"byteOffset":28496,
			"target":34962
		},
		{
			"buffer":0,
			"byteLength":4768,
			"byteOffset":35648,
			"target":34962
		},
		{
			"buffer":0,
			"byteLength":7152,
			"byteOffset":40416,
			"target":34962
		},
		{
			"buffer":0,
			"byteLength":6240,
			"byteOffset":47568,
			"target":34963
		},
		{
			"buffer":0,
			"byteLength":2304,
			"byteOffset":53808,
			"target":34962
		},
		{
			"buffer":0,
			"byteLength":1536,
			"byteOffset":56112,
			"target":34962
		},
		{
			"buffer":0,
			"byteLength":2304,
			"byteOffset":57648,
			"target":34962
		},
		{
			"buffer":0,
			"byteLength":1728,
			"byteOffset":59952,
			"target":34963
		},
		{
			"buffer":0,
			"byteLength":13704,
			"byteOffset":61680,
			"target":34962
		},
		{
			"buffer":0,
			"byteLength":9136,
			"byteOffset":75384,
			"target":34962
		},
		{
			"buffer":0,
			"byteLength":13704,
			"byteOffset":84520,
			"target":34962
		},
		{
			"buffer":0,
			"byteLength":11496,
			"byteOffset":98224,
			"target":34963
		},
		{
			"buffer":0,
			"byteLength":672,
			"byteOffset":109720,
			"target":34962
		},
		{
			"buffer":0,
			"byteLength":448,
			"byteOffset":110392,
			"target":34962
		},
		{
			"buffer":0,
			"byteLength":672,
			"byteOffset":110840,
			"target":34962
		},
		{
			"buffer":0,
			"byteLength":480,
			"byteOffset":111512,
			"target":34963
		},
		{
			"buffer":0,
			"byteLength":10872,
			"byteOffset":111992,
			"target":34962
		},
		{
			"buffer":0,
			"byteLength":7248,
			"byteOffset":122864,
			"target":34962
		},
		{
			"buffer":0,
			"byteLength":10872,
			"byteOffset":130112,
			"target":34962
		},
		{
			"buffer":0,
			"byteLength":9504,
			"byteOffset":140984,
			"target":34963
		}
	],
	"buffers":[
		{
			"byteLength":150488,
			"uri":"shinchan.bin"
		}
	]
}
